<?xml version="1.0" standalone="no"?>
<!DOCTYPE svg PUBLIC "-//W3C//DTD SVG 1.1//EN" 
  "http://www.w3.org/Graphics/SVG/1.1/DTD/svg11.dtd">
<svg width="512" height="512" viewBox="0 0 512 512"
     xmlns="http://www.w3.org/2000/svg" version="1.1">
<desc>'untitled.blend', body2.prm, (Blender 2.79 (sub 0))</desc>
<polygon stroke="black" stroke-width="1" fill="grey" fill-opacity="0.25" points="162.679,308.671 252.451,332.204 252.056,305.723 " />
<polygon stroke="black" stroke-width="1" fill="grey" fill-opacity="0.25" points="164.993,335.089 167.292,357.052 252.811,354.231 252.451,332.204 " />
<polygon stroke="black" stroke-width="1" fill="grey" fill-opacity="0.25" points="15.312,284.034 25.898,283.634 9.592,280.645 " />
<polygon stroke="black" stroke-width="1" fill="grey" fill-opacity="0.25" points="29.951,55.676 3.251,55.335 22.599,59.159 " />
<polygon stroke="black" stroke-width="1" fill="grey" fill-opacity="0.25" points="142.593,277.372 173.046,278.149 191.803,241.693 128.682,252.417 " />
<polygon stroke="black" stroke-width="1" fill="grey" fill-opacity="0.25" points="56.652,311.837 90.893,294.433 54.589,302.932 " />
<polygon stroke="black" stroke-width="1" fill="grey" fill-opacity="0.25" points="464.356,348.874 447.146,338.219 406.481,353.618 " />
<polygon stroke="black" stroke-width="1" fill="grey" fill-opacity="0.25" points="228.473,223.873 191.803,143.981 191.803,223.873 " />
<polygon stroke="black" stroke-width="1" fill="grey" fill-opacity="0.25" points="447.146,338.219 402.841,324.409 406.481,353.618 " />
<polygon stroke="black" stroke-width="1" fill="grey" fill-opacity="0.25" points="11.247,307.648 22.598,308.695 25.898,283.634 15.312,284.034 " />
<polygon stroke="black" stroke-width="1" fill="grey" fill-opacity="0.25" points="339.028,263.105 345.191,227.577 228.473,223.873 " />
<polygon stroke="black" stroke-width="1" fill="grey" fill-opacity="0.25" points="90.893,294.433 90.501,285.387 57.301,287.899 " />
<polygon stroke="black" stroke-width="1" fill="grey" fill-opacity="0.25" points="129.327,239.336 191.803,241.693 129.327,224.270 " />
<polygon stroke="black" stroke-width="1" fill="grey" fill-opacity="0.25" points="167.292,357.052 164.993,335.089 148.265,350.986 " />
<polygon stroke="black" stroke-width="1" fill="grey" fill-opacity="0.25" points="164.993,335.089 138.063,312.126 148.265,350.986 " />
<polygon stroke="black" stroke-width="1" fill="grey" fill-opacity="0.25" points="54.589,302.932 25.898,283.634 22.598,308.695 " />
<polygon stroke="black" stroke-width="1" fill="grey" fill-opacity="0.25" points="28.177,277.151 25.898,283.634 90.158,277.448 " />
<polygon stroke="black" stroke-width="1" fill="grey" fill-opacity="0.25" points="191.803,223.873 129.327,224.270 191.803,241.693 " />
<polygon stroke="black" stroke-width="1" fill="grey" fill-opacity="0.25" points="251.937,281.738 252.056,305.723 322.881,303.387 328.543,276.526 " />
<polygon stroke="black" stroke-width="1" fill="grey" fill-opacity="0.25" points="409.009,287.141 409.009,233.893 384.280,283.757 " />
<polygon stroke="black" stroke-width="1" fill="grey" fill-opacity="0.25" points="447.766,451.849 386.115,451.849 386.115,477.029 447.766,477.030 " />
<polygon stroke="black" stroke-width="1" fill="grey" fill-opacity="0.25" points="124.213,147.802 31.238,127.583 31.238,240.271 124.213,220.052 " />
<polygon stroke="black" stroke-width="1" fill="grey" fill-opacity="0.25" points="191.803,223.873 191.803,143.981 129.327,143.584 129.327,224.270 " />
<polygon stroke="black" stroke-width="1" fill="grey" fill-opacity="0.25" points="9.626,110.728 9.626,257.126 31.238,240.271 31.238,127.583 " />
<polygon stroke="black" stroke-width="1" fill="grey" fill-opacity="0.25" points="503.734,281.285 503.801,86.603 492.518,281.281 " />
<polygon stroke="black" stroke-width="1" fill="grey" fill-opacity="0.25" points="492.518,281.281 476.092,130.366 476.055,237.503 " />
<polygon stroke="black" stroke-width="1" fill="grey" fill-opacity="0.25" points="15.072,26.437 3.251,55.335 29.951,55.676 " />
<polygon stroke="black" stroke-width="1" fill="grey" fill-opacity="0.25" points="120.229,440.859 120.229,440.859 120.229,440.859 120.229,440.859 " />
<polygon stroke="black" stroke-width="1" fill="grey" fill-opacity="0.25" points="459.676,291.788 459.695,237.498 454.485,234.096 " />
<polygon stroke="black" stroke-width="1" fill="grey" fill-opacity="0.25" points="454.450,284.971 459.676,291.788 454.485,234.096 " />
<polygon stroke="black" stroke-width="1" fill="grey" fill-opacity="0.25" points="322.881,303.387 252.056,305.723 252.451,332.204 320.454,329.961 " />
<polygon stroke="black" stroke-width="1" fill="grey" fill-opacity="0.25" points="454.485,234.096 454.485,133.758 409.009,133.961 409.009,233.893 " />
<polygon stroke="black" stroke-width="1" fill="grey" fill-opacity="0.25" points="476.036,292.491 492.518,281.281 476.055,237.503 " />
<polygon stroke="black" stroke-width="1" fill="grey" fill-opacity="0.25" points="321.883,351.953 320.454,329.961 252.451,332.204 252.811,354.231 " />
<polygon stroke="black" stroke-width="1" fill="grey" fill-opacity="0.25" points="52.239,15.918 15.072,26.437 29.951,55.676 " />
<polygon stroke="black" stroke-width="1" fill="grey" fill-opacity="0.25" points="370.604,281.885 339.028,263.105 328.543,276.526 " />
<polygon stroke="black" stroke-width="1" fill="grey" fill-opacity="0.25" points="409.009,233.893 345.191,227.577 370.604,281.885 " />
<polygon stroke="black" stroke-width="1" fill="grey" fill-opacity="0.25" points="502.422,475.316 500.368,451.849 447.766,451.849 447.766,477.030 " />
<polygon stroke="black" stroke-width="1" fill="grey" fill-opacity="0.25" points="251.937,281.738 228.473,242.030 191.803,241.693 173.046,278.149 " />
<polygon stroke="black" stroke-width="1" fill="grey" fill-opacity="0.25" points="28.177,277.151 90.158,277.448 90.158,277.448 31.320,276.081 " />
<polygon stroke="black" stroke-width="1" fill="grey" fill-opacity="0.25" points="90.893,294.433 121.198,285.032 90.501,285.387 " />
<polygon stroke="black" stroke-width="1" fill="grey" fill-opacity="0.25" points="354.257,286.312 370.604,281.885 328.543,276.526 " />
<polygon stroke="black" stroke-width="1" fill="grey" fill-opacity="0.25" points="354.257,286.312 379.284,285.487 384.280,283.757 370.604,281.885 " />
<polygon stroke="black" stroke-width="1" fill="grey" fill-opacity="0.25" points="9.626,257.126 31.238,245.401 31.238,240.271 " />
<polygon stroke="black" stroke-width="1" fill="grey" fill-opacity="0.25" points="90.158,277.448 90.158,277.448 142.593,277.372 " />
<polygon stroke="black" stroke-width="1" fill="grey" fill-opacity="0.25" points="506.729,479.920 502.422,475.316 447.766,477.030 447.766,481.634 " />
<polygon stroke="black" stroke-width="1" fill="grey" fill-opacity="0.25" points="252.056,305.723 251.937,281.738 173.046,278.149 162.679,308.671 " />
<polygon stroke="black" stroke-width="1" fill="grey" fill-opacity="0.25" points="31.320,276.081 90.158,277.448 128.682,252.417 " />
<polygon stroke="black" stroke-width="1" fill="grey" fill-opacity="0.25" points="31.238,240.271 31.238,245.401 129.327,239.336 129.327,224.270 " />
<polygon stroke="black" stroke-width="1" fill="grey" fill-opacity="0.25" points="90.158,277.448 142.593,277.372 128.682,252.417 " />
<polygon stroke="black" stroke-width="1" fill="grey" fill-opacity="0.25" points="228.473,223.873 328.543,276.526 339.028,263.105 " />
<polygon stroke="black" stroke-width="1" fill="grey" fill-opacity="0.25" points="129.327,224.270 124.213,220.052 31.238,240.271 " />
<polygon stroke="black" stroke-width="1" fill="grey" fill-opacity="0.25" points="379.284,285.487 404.828,303.519 409.009,287.141 384.280,283.757 " />
<polygon stroke="black" stroke-width="1" fill="grey" fill-opacity="0.25" points="147.981,485.314 147.981,506.646 218.406,506.646 218.406,485.314 " />
<polygon stroke="black" stroke-width="1" fill="grey" fill-opacity="0.25" points="409.009,233.893 370.604,281.885 384.280,283.757 " />
<polygon stroke="black" stroke-width="1" fill="grey" fill-opacity="0.25" points="370.604,281.885 345.191,227.577 339.028,263.105 " />
<polygon stroke="black" stroke-width="1" fill="grey" fill-opacity="0.25" points="228.473,223.873 191.803,223.873 228.473,242.030 " />
<polygon stroke="black" stroke-width="1" fill="grey" fill-opacity="0.25" points="228.473,242.030 191.803,223.873 191.803,241.693 " />
<polygon stroke="black" stroke-width="1" fill="grey" fill-opacity="0.25" points="409.009,233.893 409.009,133.961 345.191,140.277 345.191,227.577 " />
<polygon stroke="black" stroke-width="1" fill="grey" fill-opacity="0.25" points="228.473,242.030 251.937,281.738 328.543,276.526 " />
<polygon stroke="black" stroke-width="1" fill="grey" fill-opacity="0.25" points="252.451,332.204 162.679,308.671 164.993,335.089 " />
<polygon stroke="black" stroke-width="1" fill="grey" fill-opacity="0.25" points="498.327,509.193 447.766,481.634 447.766,509.193 " />
<polygon stroke="black" stroke-width="1" fill="grey" fill-opacity="0.25" points="460.017,407.518 373.863,407.518 378.368,433.805 455.513,433.805 " />
<polygon stroke="black" stroke-width="1" fill="grey" fill-opacity="0.25" points="218.406,437.421 147.981,437.421 147.981,453.429 218.406,453.429 " />
<polygon stroke="black" stroke-width="1" fill="grey" fill-opacity="0.25" points="147.981,469.305 147.981,485.314 218.406,485.314 218.406,469.305 " />
<polygon stroke="black" stroke-width="1" fill="grey" fill-opacity="0.25" points="218.406,453.429 147.981,453.429 147.981,469.305 218.406,469.305 " />
<polygon stroke="black" stroke-width="1" fill="grey" fill-opacity="0.25" points="449.486,300.055 409.009,287.141 404.828,303.519 451.186,305.230 " />
<polygon stroke="black" stroke-width="1" fill="grey" fill-opacity="0.25" points="164.993,335.089 162.679,308.671 138.063,312.126 " />
<polygon stroke="black" stroke-width="1" fill="grey" fill-opacity="0.25" points="500.045,448.273 386.115,451.849 447.766,451.849 " />
<polygon stroke="black" stroke-width="1" fill="grey" fill-opacity="0.25" points="500.368,451.849 500.045,448.273 447.766,451.849 " />
<polygon stroke="black" stroke-width="1" fill="grey" fill-opacity="0.25" points="506.729,479.920 447.766,481.634 498.327,509.193 " />
<polygon stroke="black" stroke-width="1" fill="grey" fill-opacity="0.25" points="113.006,293.704 138.063,312.126 162.679,308.671 121.198,285.032 " />
<polygon stroke="black" stroke-width="1" fill="grey" fill-opacity="0.25" points="121.198,285.032 90.893,294.433 113.006,293.704 " />
<polygon stroke="black" stroke-width="1" fill="grey" fill-opacity="0.25" points="173.046,278.149 142.593,277.372 121.198,285.032 " />
<polygon stroke="black" stroke-width="1" fill="grey" fill-opacity="0.25" points="162.679,308.671 173.046,278.149 121.198,285.032 " />
<polygon stroke="black" stroke-width="1" fill="grey" fill-opacity="0.25" points="57.301,287.899 54.589,302.932 90.893,294.433 " />
<polygon stroke="black" stroke-width="1" fill="grey" fill-opacity="0.25" points="121.198,285.032 142.593,277.372 90.158,277.448 " />
<polygon stroke="black" stroke-width="1" fill="grey" fill-opacity="0.25" points="57.301,287.899 90.158,277.448 25.898,283.634 " />
<polygon stroke="black" stroke-width="1" fill="grey" fill-opacity="0.25" points="54.589,302.932 22.598,308.695 56.652,311.837 " />
<polygon stroke="black" stroke-width="1" fill="grey" fill-opacity="0.25" points="54.589,302.932 57.301,287.899 25.898,283.634 " />
<polygon stroke="black" stroke-width="1" fill="grey" fill-opacity="0.25" points="57.301,287.899 90.501,285.387 90.158,277.448 " />
<polygon stroke="black" stroke-width="1" fill="grey" fill-opacity="0.25" points="9.729,277.063 9.592,280.645 25.898,283.634 " />
<polygon stroke="black" stroke-width="1" fill="grey" fill-opacity="0.25" points="28.177,277.151 9.729,277.063 25.898,283.634 " />
<polygon stroke="black" stroke-width="1" fill="grey" fill-opacity="0.25" points="31.238,245.401 9.626,257.126 28.061,258.084 " />
<polygon stroke="black" stroke-width="1" fill="grey" fill-opacity="0.25" points="322.881,303.387 354.257,286.312 328.543,276.526 " />
<polygon stroke="black" stroke-width="1" fill="grey" fill-opacity="0.25" points="228.473,223.873 228.473,242.030 328.543,276.526 " />
<polygon stroke="black" stroke-width="1" fill="grey" fill-opacity="0.25" points="90.501,285.387 121.198,285.032 90.158,277.448 " />
<polygon stroke="black" stroke-width="1" fill="grey" fill-opacity="0.25" points="162.679,59.183 252.056,62.131 252.451,35.650 " />
<polygon stroke="black" stroke-width="1" fill="grey" fill-opacity="0.25" points="164.993,32.765 252.451,35.650 252.811,13.623 167.292,10.802 " />
<polygon stroke="black" stroke-width="1" fill="grey" fill-opacity="0.25" points="15.312,83.820 9.592,87.209 25.898,84.220 " />
<polygon stroke="black" stroke-width="1" fill="grey" fill-opacity="0.25" points="3.251,312.518 22.598,308.695 11.247,307.648 " />
<polygon stroke="black" stroke-width="1" fill="grey" fill-opacity="0.25" points="142.593,90.482 128.682,115.437 191.803,126.161 173.046,89.705 " />
<polygon stroke="black" stroke-width="1" fill="grey" fill-opacity="0.25" points="56.652,56.017 54.589,64.922 90.893,73.420 " />
<polygon stroke="black" stroke-width="1" fill="grey" fill-opacity="0.25" points="119.859,428.000 119.859,428.000 119.859,428.000 119.859,428.000 " />
<polygon stroke="black" stroke-width="1" fill="grey" fill-opacity="0.25" points="464.356,18.980 406.481,14.236 447.146,29.635 " />
<polygon stroke="black" stroke-width="1" fill="grey" fill-opacity="0.25" points="447.146,29.635 402.841,43.445 463.183,46.650 " />
<polygon stroke="black" stroke-width="1" fill="grey" fill-opacity="0.25" points="11.247,60.206 15.312,83.820 25.898,84.220 22.599,59.159 " />
<polygon stroke="black" stroke-width="1" fill="grey" fill-opacity="0.25" points="228.473,143.981 345.191,140.277 339.028,104.749 " />
<polygon stroke="black" stroke-width="1" fill="grey" fill-opacity="0.25" points="90.893,73.420 57.301,79.954 90.501,82.467 " />
<polygon stroke="black" stroke-width="1" fill="grey" fill-opacity="0.25" points="129.327,128.518 129.327,143.584 191.803,126.161 " />
<polygon stroke="black" stroke-width="1" fill="grey" fill-opacity="0.25" points="167.292,10.802 148.265,16.868 164.993,32.765 " />
<polygon stroke="black" stroke-width="1" fill="grey" fill-opacity="0.25" points="164.993,32.765 148.265,16.868 138.063,55.728 " />
<polygon stroke="black" stroke-width="1" fill="grey" fill-opacity="0.25" points="54.589,64.922 22.599,59.159 25.898,84.220 " />
<polygon stroke="black" stroke-width="1" fill="grey" fill-opacity="0.25" points="28.177,90.703 90.158,90.406 25.898,84.220 " />
<polygon stroke="black" stroke-width="1" fill="grey" fill-opacity="0.25" points="191.803,143.981 191.803,126.161 129.327,143.584 " />
<polygon stroke="black" stroke-width="1" fill="grey" fill-opacity="0.25" points="251.937,86.116 328.543,91.328 322.881,64.467 252.056,62.131 " />
<polygon stroke="black" stroke-width="1" fill="grey" fill-opacity="0.25" points="409.009,80.713 384.280,84.097 409.009,133.961 " />
<polygon stroke="black" stroke-width="1" fill="grey" fill-opacity="0.25" points="338.781,444.697 333.836,448.273 500.045,448.273 " />
<polygon stroke="black" stroke-width="1" fill="grey" fill-opacity="0.25" points="492.585,86.599 476.092,130.366 492.518,281.281 " />
<polygon stroke="black" stroke-width="1" fill="grey" fill-opacity="0.25" points="56.652,311.837 22.598,308.695 29.951,312.178 " />
<polygon stroke="black" stroke-width="1" fill="grey" fill-opacity="0.25" points="120.229,440.859 120.229,440.859 120.229,440.859 120.229,440.859 " />
<polygon stroke="black" stroke-width="1" fill="grey" fill-opacity="0.25" points="459.751,76.070 454.485,133.758 459.732,130.360 " />
<polygon stroke="black" stroke-width="1" fill="grey" fill-opacity="0.25" points="454.520,82.883 454.485,133.758 459.751,76.070 " />
<polygon stroke="black" stroke-width="1" fill="grey" fill-opacity="0.25" points="322.881,64.467 320.454,37.893 252.451,35.650 252.056,62.131 " />
<polygon stroke="black" stroke-width="1" fill="grey" fill-opacity="0.25" points="476.111,75.378 476.092,130.366 492.585,86.599 " />
<polygon stroke="black" stroke-width="1" fill="grey" fill-opacity="0.25" points="321.883,15.901 252.811,13.623 252.451,35.650 320.454,37.893 " />
<polygon stroke="black" stroke-width="1" fill="grey" fill-opacity="0.25" points="29.951,312.178 22.598,308.695 3.251,312.518 " />
<polygon stroke="black" stroke-width="1" fill="grey" fill-opacity="0.25" points="370.604,85.969 328.543,91.328 339.028,104.749 " />
<polygon stroke="black" stroke-width="1" fill="grey" fill-opacity="0.25" points="492.585,86.599 492.518,281.281 503.801,86.603 " />
<polygon stroke="black" stroke-width="1" fill="grey" fill-opacity="0.25" points="409.009,133.961 370.604,85.969 345.191,140.277 " />
<polygon stroke="black" stroke-width="1" fill="grey" fill-opacity="0.25" points="331.459,475.316 386.115,477.029 386.115,451.849 333.513,451.849 " />
<polygon stroke="black" stroke-width="1" fill="grey" fill-opacity="0.25" points="228.473,223.873 228.473,143.981 191.803,143.981 " />
<polygon stroke="black" stroke-width="1" fill="grey" fill-opacity="0.25" points="251.937,86.116 173.046,89.705 191.803,126.161 228.473,125.824 " />
<polygon stroke="black" stroke-width="1" fill="grey" fill-opacity="0.25" points="28.177,90.703 31.320,91.773 90.158,90.406 90.158,90.406 " />
<polygon stroke="black" stroke-width="1" fill="grey" fill-opacity="0.25" points="90.893,73.420 90.501,82.467 121.198,82.822 " />
<polygon stroke="black" stroke-width="1" fill="grey" fill-opacity="0.25" points="354.257,81.542 328.543,91.328 370.604,85.969 " />
<polygon stroke="black" stroke-width="1" fill="grey" fill-opacity="0.25" points="354.257,81.542 370.604,85.969 384.280,84.097 379.285,82.367 " />
<polygon stroke="black" stroke-width="1" fill="grey" fill-opacity="0.25" points="9.626,110.728 31.238,127.583 31.238,122.453 " />
<polygon stroke="black" stroke-width="1" fill="grey" fill-opacity="0.25" points="90.158,90.406 142.593,90.482 90.158,90.406 " />
<polygon stroke="black" stroke-width="1" fill="grey" fill-opacity="0.25" points="252.056,62.131 162.679,59.183 173.046,89.705 251.937,86.116 " />
<polygon stroke="black" stroke-width="1" fill="grey" fill-opacity="0.25" points="31.320,91.773 128.682,115.437 90.158,90.406 " />
<polygon stroke="black" stroke-width="1" fill="grey" fill-opacity="0.25" points="31.238,127.583 129.327,143.584 129.327,128.518 31.238,122.453 " />
<polygon stroke="black" stroke-width="1" fill="grey" fill-opacity="0.25" points="90.158,90.406 128.682,115.437 142.593,90.482 " />
<polygon stroke="black" stroke-width="1" fill="grey" fill-opacity="0.25" points="228.473,143.981 339.028,104.749 328.543,91.328 " />
<polygon stroke="black" stroke-width="1" fill="grey" fill-opacity="0.25" points="129.327,143.584 31.238,127.583 124.213,147.802 " />
<polygon stroke="black" stroke-width="1" fill="grey" fill-opacity="0.25" points="379.285,82.367 384.280,84.097 409.009,80.713 404.828,64.335 " />
<polygon stroke="black" stroke-width="1" fill="grey" fill-opacity="0.25" points="119.859,428.000 119.859,428.000 119.859,428.000 119.859,428.000 " />
<polygon stroke="black" stroke-width="1" fill="grey" fill-opacity="0.25" points="409.009,133.961 384.280,84.097 370.604,85.969 " />
<polygon stroke="black" stroke-width="1" fill="grey" fill-opacity="0.25" points="370.604,85.969 339.028,104.749 345.191,140.277 " />
<polygon stroke="black" stroke-width="1" fill="grey" fill-opacity="0.25" points="228.473,143.981 228.473,125.824 191.803,143.981 " />
<polygon stroke="black" stroke-width="1" fill="grey" fill-opacity="0.25" points="228.473,125.824 191.803,126.161 191.803,143.981 " />
<polygon stroke="black" stroke-width="1" fill="grey" fill-opacity="0.25" points="228.473,125.824 328.543,91.328 251.937,86.116 " />
<polygon stroke="black" stroke-width="1" fill="grey" fill-opacity="0.25" points="252.451,35.650 164.993,32.765 162.679,59.183 " />
<polygon stroke="black" stroke-width="1" fill="grey" fill-opacity="0.25" points="119.859,428.000 119.859,428.000 119.859,428.000 " />
<polygon stroke="black" stroke-width="1" fill="grey" fill-opacity="0.25" points="119.859,428.000 119.859,428.000 119.859,428.000 " />
<polygon stroke="black" stroke-width="1" fill="grey" fill-opacity="0.25" points="119.859,428.000 119.859,428.000 119.859,428.000 " />
<polygon stroke="black" stroke-width="1" fill="grey" fill-opacity="0.25" points="119.859,428.000 119.859,428.000 119.859,428.000 " />
<polygon stroke="black" stroke-width="1" fill="grey" fill-opacity="0.25" points="449.486,67.799 451.186,62.624 404.828,64.335 409.009,80.713 " />
<polygon stroke="black" stroke-width="1" fill="grey" fill-opacity="0.25" points="164.993,32.765 138.063,55.728 162.679,59.183 " />
<polygon stroke="black" stroke-width="1" fill="grey" fill-opacity="0.25" points="119.859,428.000 119.859,428.000 119.859,428.000 " />
<polygon stroke="black" stroke-width="1" fill="grey" fill-opacity="0.25" points="119.859,428.000 119.859,428.000 119.859,428.000 " />
<polygon stroke="black" stroke-width="1" fill="grey" fill-opacity="0.25" points="119.859,428.000 119.859,428.000 119.859,428.000 " />
<polygon stroke="black" stroke-width="1" fill="grey" fill-opacity="0.25" points="15.072,341.417 29.951,312.178 3.251,312.518 " />
<polygon stroke="black" stroke-width="1" fill="grey" fill-opacity="0.25" points="113.006,74.150 121.198,82.822 162.679,59.183 138.063,55.728 " />
<polygon stroke="black" stroke-width="1" fill="grey" fill-opacity="0.25" points="121.198,82.822 113.006,74.150 90.893,73.420 " />
<polygon stroke="black" stroke-width="1" fill="grey" fill-opacity="0.25" points="173.046,89.705 121.198,82.822 142.593,90.482 " />
<polygon stroke="black" stroke-width="1" fill="grey" fill-opacity="0.25" points="162.679,59.183 121.198,82.822 173.046,89.705 " />
<polygon stroke="black" stroke-width="1" fill="grey" fill-opacity="0.25" points="57.301,79.954 90.893,73.420 54.589,64.922 " />
<polygon stroke="black" stroke-width="1" fill="grey" fill-opacity="0.25" points="121.198,82.822 90.158,90.406 142.593,90.482 " />
<polygon stroke="black" stroke-width="1" fill="grey" fill-opacity="0.25" points="57.301,79.954 25.898,84.220 90.158,90.406 " />
<polygon stroke="black" stroke-width="1" fill="grey" fill-opacity="0.25" points="54.589,64.922 56.652,56.017 22.599,59.159 " />
<polygon stroke="black" stroke-width="1" fill="grey" fill-opacity="0.25" points="54.589,64.922 25.898,84.220 57.301,79.954 " />
<polygon stroke="black" stroke-width="1" fill="grey" fill-opacity="0.25" points="57.301,79.954 90.158,90.406 90.501,82.467 " />
<polygon stroke="black" stroke-width="1" fill="grey" fill-opacity="0.25" points="9.729,90.791 25.898,84.220 9.592,87.209 " />
<polygon stroke="black" stroke-width="1" fill="grey" fill-opacity="0.25" points="28.177,90.703 25.898,84.220 9.729,90.791 " />
<polygon stroke="black" stroke-width="1" fill="grey" fill-opacity="0.25" points="31.238,122.453 28.061,109.770 9.626,110.728 " />
<polygon stroke="black" stroke-width="1" fill="grey" fill-opacity="0.25" points="322.881,64.467 328.543,91.328 354.257,81.542 " />
<polygon stroke="black" stroke-width="1" fill="grey" fill-opacity="0.25" points="228.473,143.981 328.543,91.328 228.473,125.824 " />
<polygon stroke="black" stroke-width="1" fill="grey" fill-opacity="0.25" points="90.501,82.467 90.158,90.406 121.198,82.822 " />
<polygon stroke="black" stroke-width="1" fill="grey" fill-opacity="0.25" points="119.859,428.000 119.859,428.000 119.859,428.000 " />
<polygon stroke="black" stroke-width="1" fill="grey" fill-opacity="0.25" points="119.859,428.000 119.859,428.000 119.859,428.000 " />
<polygon stroke="black" stroke-width="1" fill="grey" fill-opacity="0.25" points="119.859,428.000 119.859,428.000 119.859,428.000 " />
<polygon stroke="black" stroke-width="1" fill="grey" fill-opacity="0.25" points="119.859,428.000 119.859,428.000 119.859,428.000 " />
<polygon stroke="black" stroke-width="1" fill="grey" fill-opacity="0.25" points="119.859,428.000 119.859,428.000 119.859,428.000 " />
<polygon stroke="black" stroke-width="1" fill="grey" fill-opacity="0.25" points="119.859,428.000 119.859,428.000 119.859,428.000 " />
<polygon stroke="black" stroke-width="1" fill="grey" fill-opacity="0.25" points="119.859,428.000 119.859,428.000 119.859,428.000 " />
<polygon stroke="black" stroke-width="1" fill="grey" fill-opacity="0.25" points="119.859,428.000 119.859,428.000 119.859,428.000 119.859,428.000 " />
<polygon stroke="black" stroke-width="1" fill="grey" fill-opacity="0.25" points="345.191,227.577 345.191,140.277 228.473,223.873 " />
<polygon stroke="black" stroke-width="1" fill="grey" fill-opacity="0.25" points="459.695,237.498 459.732,130.360 454.485,133.758 454.485,234.096 " />
<polygon stroke="black" stroke-width="1" fill="grey" fill-opacity="0.25" points="119.859,428.000 119.859,428.000 119.859,428.000 119.859,428.000 " />
<polygon stroke="black" stroke-width="1" fill="grey" fill-opacity="0.25" points="495.100,444.698 338.781,444.697 500.045,448.273 " />
<polygon stroke="black" stroke-width="1" fill="grey" fill-opacity="0.25" points="447.146,338.219 463.183,321.204 402.841,324.409 " />
<polygon stroke="black" stroke-width="1" fill="grey" fill-opacity="0.25" points="447.146,29.635 406.481,14.236 402.841,43.445 " />
<polygon stroke="black" stroke-width="1" fill="grey" fill-opacity="0.25" points="29.951,312.178 15.072,341.417 52.239,351.936 " />
<polygon stroke="black" stroke-width="1" fill="grey" fill-opacity="0.25" points="56.652,311.837 29.951,312.178 52.239,351.936 " />
<polygon stroke="black" stroke-width="1" fill="grey" fill-opacity="0.25" points="52.239,15.918 29.951,55.676 56.652,56.017 " />
<polygon stroke="black" stroke-width="1" fill="grey" fill-opacity="0.25" points="327.152,479.920 386.115,481.634 386.115,477.029 331.459,475.316 " />
<polygon stroke="black" stroke-width="1" fill="grey" fill-opacity="0.25" points="335.554,509.193 386.115,509.193 386.115,481.634 " />
<polygon stroke="black" stroke-width="1" fill="grey" fill-opacity="0.25" points="327.152,479.920 335.554,509.193 386.115,481.634 " />
<polygon stroke="black" stroke-width="1" fill="grey" fill-opacity="0.25" points="3.251,55.335 11.247,60.206 22.599,59.159 " />
<polygon stroke="black" stroke-width="1" fill="grey" fill-opacity="0.25" points="56.652,56.017 29.951,55.676 22.599,59.159 " />
<polygon stroke="black" stroke-width="1" fill="grey" fill-opacity="0.25" points="465.300,75.374 465.281,130.362 476.092,130.366 476.111,75.378 " />
<polygon stroke="black" stroke-width="1" fill="grey" fill-opacity="0.25" points="459.751,76.070 459.732,130.360 465.281,130.362 465.300,75.374 " />
<polygon stroke="black" stroke-width="1" fill="grey" fill-opacity="0.25" points="463.183,46.650 402.841,43.445 404.828,64.335 463.018,57.462 " />
<polygon stroke="black" stroke-width="1" fill="grey" fill-opacity="0.25" points="451.186,62.624 463.018,57.462 404.828,64.335 " />
<polygon stroke="black" stroke-width="1" fill="grey" fill-opacity="0.25" points="228.473,143.981 228.473,223.873 345.191,140.277 " />
<polygon stroke="black" stroke-width="1" fill="grey" fill-opacity="0.25" points="465.225,292.488 476.036,292.491 476.055,237.503 465.244,237.500 " />
<polygon stroke="black" stroke-width="1" fill="grey" fill-opacity="0.25" points="465.281,130.362 465.244,237.500 476.055,237.503 476.092,130.366 " />
<polygon stroke="black" stroke-width="1" fill="grey" fill-opacity="0.25" points="465.244,237.500 465.281,130.362 459.732,130.360 459.695,237.498 " />
<polygon stroke="black" stroke-width="1" fill="grey" fill-opacity="0.25" points="459.676,291.788 465.225,292.488 465.244,237.500 459.695,237.498 " />
<polygon stroke="black" stroke-width="1" fill="grey" fill-opacity="0.25" points="463.183,321.204 463.018,310.392 404.828,303.519 402.841,324.409 " />
<polygon stroke="black" stroke-width="1" fill="grey" fill-opacity="0.25" points="451.186,305.230 404.828,303.519 463.018,310.392 " />
<polygon stroke="black" stroke-width="1" fill="grey" fill-opacity="0.25" points="218.406,416.088 147.981,416.088 147.981,437.421 218.406,437.421 " />
<polygon stroke="black" stroke-width="1" fill="grey" fill-opacity="0.25" points="291.260,460.465 254.424,440.252 236.913,460.284 " />
<polygon stroke="black" stroke-width="1" fill="grey" fill-opacity="0.25" points="291.260,460.465 291.260,440.252 254.424,440.252 " />
<polygon stroke="black" stroke-width="1" fill="grey" fill-opacity="0.25" points="291.260,487.066 254.424,505.990 291.260,505.990 " />
<polygon stroke="black" stroke-width="1" fill="grey" fill-opacity="0.25" points="291.260,460.465 236.913,460.284 236.913,485.958 291.260,487.066 " />
<polygon stroke="black" stroke-width="1" fill="grey" fill-opacity="0.25" points="291.260,487.066 236.913,485.958 254.424,505.990 " />
<polygon stroke="black" stroke-width="1" fill="grey" fill-opacity="0.25" points="333.513,451.849 386.115,451.849 333.836,448.273 " />
<polygon stroke="black" stroke-width="1" fill="grey" fill-opacity="0.25" points="333.836,448.273 386.115,451.849 500.045,448.273 " />
<polygon stroke="black" stroke-width="1" fill="grey" fill-opacity="0.25" points="317.801,407.416 237.036,407.416 237.036,431.362 317.801,431.362 " />
<polygon stroke="black" stroke-width="1" fill="grey" fill-opacity="0.25" points="317.801,407.307 317.801,431.253 237.036,431.253 237.036,407.307 " />
<polygon stroke="black" stroke-width="1" fill="grey" fill-opacity="0.25" points="291.260,460.465 236.913,460.284 254.424,440.252 " />
<polygon stroke="black" stroke-width="1" fill="grey" fill-opacity="0.25" points="291.260,460.465 254.424,440.252 291.260,440.252 " />
<polygon stroke="black" stroke-width="1" fill="grey" fill-opacity="0.25" points="291.260,487.066 291.260,505.990 254.424,505.990 " />
<polygon stroke="black" stroke-width="1" fill="grey" fill-opacity="0.25" points="291.260,460.465 291.260,487.066 236.913,485.958 236.913,460.284 " />
<polygon stroke="black" stroke-width="1" fill="grey" fill-opacity="0.25" points="291.260,487.066 254.424,505.990 236.913,485.958 " />
<polygon stroke="black" stroke-width="1" fill="grey" fill-opacity="0.25" points="120.130,419.233 120.130,419.233 120.130,419.233 " />
<polygon stroke="black" stroke-width="1" fill="grey" fill-opacity="0.25" points="120.130,419.233 120.130,419.233 120.130,419.233 " />
<polygon stroke="black" stroke-width="1" fill="grey" fill-opacity="0.25" points="120.130,419.233 120.130,419.233 120.130,419.233 " />
<polygon stroke="black" stroke-width="1" fill="grey" fill-opacity="0.25" points="120.130,419.233 120.130,419.233 120.130,419.233 " />
<polygon stroke="black" stroke-width="1" fill="grey" fill-opacity="0.25" points="120.130,419.233 120.130,419.233 120.130,419.233 " />
<polygon stroke="black" stroke-width="1" fill="grey" fill-opacity="0.25" points="120.130,419.233 120.130,419.233 120.130,419.233 " />
<polygon stroke="black" stroke-width="1" fill="grey" fill-opacity="0.25" points="120.130,419.233 120.130,419.233 120.130,419.233 " />
<polygon stroke="black" stroke-width="1" fill="grey" fill-opacity="0.25" points="120.130,419.233 120.130,419.233 120.130,419.233 " />
<polygon stroke="black" stroke-width="1" fill="grey" fill-opacity="0.25" points="120.130,419.233 120.130,419.233 120.130,419.233 " />
<polygon stroke="black" stroke-width="1" fill="grey" fill-opacity="0.25" points="120.130,419.233 120.130,419.233 120.130,419.233 " />
<polygon stroke="black" stroke-width="1" fill="grey" fill-opacity="0.25" points="120.130,419.233 120.130,419.233 120.130,419.233 " />
<polygon stroke="black" stroke-width="1" fill="grey" fill-opacity="0.25" points="120.130,419.233 120.130,419.233 120.130,419.233 120.130,419.233 " />
<polygon stroke="black" stroke-width="1" fill="grey" fill-opacity="0.25" points="120.130,419.233 120.130,419.233 120.130,419.233 120.130,419.233 " />
<polygon stroke="black" stroke-width="1" fill="grey" fill-opacity="0.25" points="120.130,419.233 120.130,419.233 120.130,419.233 120.130,419.233 " />
<polygon stroke="black" stroke-width="1" fill="grey" fill-opacity="0.25" points="120.130,419.233 120.130,419.233 120.130,419.233 120.130,419.233 " />
<polygon stroke="black" stroke-width="1" fill="grey" fill-opacity="0.25" points="120.130,419.233 120.130,419.233 120.130,419.233 120.130,419.233 " />
<polygon stroke="black" stroke-width="1" fill="grey" fill-opacity="0.25" points="120.130,419.233 120.130,419.233 120.130,419.233 120.130,419.233 " />
<polygon stroke="black" stroke-width="1" fill="grey" fill-opacity="0.25" points="120.130,419.233 120.130,419.233 120.130,419.233 120.130,419.233 " />
<polygon stroke="black" stroke-width="1" fill="grey" fill-opacity="0.25" points="120.130,419.233 120.130,419.233 120.130,419.233 120.130,419.233 " />
<polygon stroke="black" stroke-width="1" fill="grey" fill-opacity="0.25" points="120.130,419.233 120.130,419.233 120.130,419.233 120.130,419.233 " />
<polygon stroke="black" stroke-width="1" fill="grey" fill-opacity="0.25" points="120.130,419.233 120.130,419.233 120.130,419.233 120.130,419.233 " />
<polygon stroke="black" stroke-width="1" fill="grey" fill-opacity="0.25" points="120.130,419.233 120.130,419.233 120.130,419.233 120.130,419.233 " />
<polygon stroke="black" stroke-width="1" fill="grey" fill-opacity="0.25" points="120.130,419.233 120.130,419.233 120.130,419.233 120.130,419.233 " />
<polygon stroke="black" stroke-width="1" fill="grey" fill-opacity="0.25" points="120.130,419.233 120.130,419.233 120.130,419.233 " />
<polygon stroke="black" stroke-width="1" fill="grey" fill-opacity="0.25" points="120.130,419.233 120.130,419.233 120.130,419.233 " />
<polygon stroke="black" stroke-width="1" fill="grey" fill-opacity="0.25" points="120.130,419.233 120.130,419.233 120.130,419.233 " />
<polygon stroke="black" stroke-width="1" fill="grey" fill-opacity="0.25" points="120.130,419.233 120.130,419.233 120.130,419.233 " />
<polygon stroke="black" stroke-width="1" fill="grey" fill-opacity="0.25" points="120.130,419.233 120.130,419.233 120.130,419.233 " />
<polygon stroke="black" stroke-width="1" fill="grey" fill-opacity="0.25" points="120.130,419.233 120.130,419.233 120.130,419.233 " />
<polygon stroke="black" stroke-width="1" fill="grey" fill-opacity="0.25" points="120.130,419.233 120.130,419.233 120.130,419.233 " />
<polygon stroke="black" stroke-width="1" fill="grey" fill-opacity="0.25" points="120.130,419.233 120.130,419.233 120.130,419.233 " />
<polygon stroke="black" stroke-width="1" fill="grey" fill-opacity="0.25" points="120.130,419.233 120.130,419.233 120.130,419.233 " />
<polygon stroke="black" stroke-width="1" fill="grey" fill-opacity="0.25" points="120.130,419.233 120.130,419.233 120.130,419.233 " />
<polygon stroke="black" stroke-width="1" fill="grey" fill-opacity="0.25" points="120.130,419.233 120.130,419.233 120.130,419.233 120.130,419.233 " />
<polygon stroke="black" stroke-width="1" fill="grey" fill-opacity="0.25" points="120.130,419.233 120.130,419.233 120.130,419.233 120.130,419.233 " />
<polygon stroke="black" stroke-width="1" fill="grey" fill-opacity="0.25" points="120.130,419.233 120.130,419.233 120.130,419.233 120.130,419.233 " />
<polygon stroke="black" stroke-width="1" fill="grey" fill-opacity="0.25" points="120.130,419.233 120.130,419.233 120.130,419.233 120.130,419.233 " />
<polygon stroke="black" stroke-width="1" fill="grey" fill-opacity="0.25" points="120.130,419.233 120.130,419.233 120.130,419.233 120.130,419.233 " />
<polygon stroke="black" stroke-width="1" fill="grey" fill-opacity="0.25" points="120.130,419.233 120.130,419.233 120.130,419.233 120.130,419.233 " />
<polygon stroke="black" stroke-width="1" fill="grey" fill-opacity="0.25" points="120.130,419.233 120.130,419.233 120.130,419.233 120.130,419.233 " />
<polygon stroke="black" stroke-width="1" fill="grey" fill-opacity="0.25" points="120.130,419.233 120.130,419.233 120.130,419.233 120.130,419.233 " />
<polygon stroke="black" stroke-width="1" fill="grey" fill-opacity="0.25" points="120.130,419.233 120.130,419.233 120.130,419.233 120.130,419.233 " />
<polygon stroke="black" stroke-width="1" fill="grey" fill-opacity="0.25" points="120.130,419.233 120.130,419.233 120.130,419.233 120.130,419.233 " />
<polygon stroke="black" stroke-width="1" fill="grey" fill-opacity="0.25" points="120.130,419.233 120.130,419.233 120.130,419.233 120.130,419.233 " />
<polygon stroke="black" stroke-width="1" fill="grey" fill-opacity="0.25" points="120.130,419.233 120.130,419.233 120.130,419.233 120.130,419.233 " />
<polygon stroke="black" stroke-width="1" fill="grey" fill-opacity="0.25" points="120.130,419.233 120.130,419.233 120.130,419.233 " />
<polygon stroke="black" stroke-width="1" fill="grey" fill-opacity="0.25" points="120.130,419.233 120.130,419.233 120.130,419.233 " />
<polygon stroke="black" stroke-width="1" fill="grey" fill-opacity="0.25" points="120.130,419.233 120.130,419.233 120.130,419.233 " />
<polygon stroke="black" stroke-width="1" fill="grey" fill-opacity="0.25" points="120.130,419.233 120.130,419.233 120.130,419.233 120.130,419.233 " />
<polygon stroke="black" stroke-width="1" fill="grey" fill-opacity="0.25" points="120.130,419.233 120.130,419.233 120.130,419.233 " />
<polygon stroke="black" stroke-width="1" fill="grey" fill-opacity="0.25" points="120.130,419.233 120.130,419.233 120.130,419.233 120.130,419.233 " />
<polygon stroke="black" stroke-width="1" fill="grey" fill-opacity="0.25" points="120.130,419.233 120.130,419.233 120.130,419.233 120.130,419.233 120.130,419.233 120.130,419.233 " />
<polygon stroke="black" stroke-width="1" fill="grey" fill-opacity="0.25" points="120.130,419.233 120.130,419.233 120.130,419.233 " />
<polygon stroke="black" stroke-width="1" fill="grey" fill-opacity="0.25" points="120.130,419.233 120.130,419.233 120.130,419.233 120.130,419.233 120.130,419.233 120.130,419.233 120.130,419.233 120.130,419.233 " />
<polygon stroke="black" stroke-width="1" fill="grey" fill-opacity="0.25" points="120.130,419.233 120.130,419.233 120.130,419.233 " />
<polygon stroke="black" stroke-width="1" fill="grey" fill-opacity="0.25" points="120.130,419.233 120.130,419.233 120.130,419.233 " />
<polygon stroke="black" stroke-width="1" fill="grey" fill-opacity="0.25" points="120.130,419.233 120.130,419.233 120.130,419.233 " />
<polygon stroke="black" stroke-width="1" fill="grey" fill-opacity="0.25" points="120.130,419.233 120.130,419.233 120.130,419.233 " />
<polygon stroke="black" stroke-width="1" fill="grey" fill-opacity="0.25" points="454.485,133.758 409.009,133.961 454.485,133.758 " />
<polygon stroke="black" stroke-width="1" fill="grey" fill-opacity="0.25" points="448.385,89.295 448.385,89.295 409.009,80.713 " />
<polygon stroke="black" stroke-width="1" fill="grey" fill-opacity="0.25" points="409.009,80.713 409.009,133.961 454.485,133.758 448.385,89.295 " />
<polygon stroke="black" stroke-width="1" fill="grey" fill-opacity="0.25" points="454.485,234.096 454.485,234.096 409.009,233.893 " />
<polygon stroke="black" stroke-width="1" fill="grey" fill-opacity="0.25" points="448.385,278.559 409.009,287.141 448.385,278.559 " />
<polygon stroke="black" stroke-width="1" fill="grey" fill-opacity="0.25" points="409.009,287.141 448.385,278.559 454.485,234.096 409.009,233.893 " />
<polygon stroke="black" stroke-width="1" fill="grey" fill-opacity="0.25" points="120.130,419.233 120.130,419.233 120.130,419.233 120.130,419.233 " />
<polygon stroke="black" stroke-width="1" fill="grey" fill-opacity="0.25" points="120.130,419.233 120.130,419.233 120.130,419.233 120.130,419.233 " />
<polygon stroke="black" stroke-width="1" fill="grey" fill-opacity="0.25" points="120.130,419.233 120.130,419.233 120.130,419.233 120.130,419.233 " />
<polygon stroke="black" stroke-width="1" fill="grey" fill-opacity="0.25" points="120.130,419.233 120.130,419.233 120.130,419.233 120.130,419.233 " />
<polygon stroke="black" stroke-width="1" fill="grey" fill-opacity="0.25" points="120.130,419.233 120.130,419.233 120.130,419.233 120.130,419.233 " />
<polygon stroke="black" stroke-width="1" fill="grey" fill-opacity="0.25" points="120.130,419.233 120.130,419.233 120.130,419.233 120.130,419.233 " />
<polygon stroke="black" stroke-width="1" fill="grey" fill-opacity="0.25" points="120.130,419.233 120.130,419.233 120.130,419.233 120.130,419.233 " />
<polygon stroke="black" stroke-width="1" fill="grey" fill-opacity="0.25" points="120.130,419.233 120.130,419.233 120.130,419.233 120.130,419.233 " />
<polygon stroke="black" stroke-width="1" fill="grey" fill-opacity="0.25" points="120.130,419.233 120.130,419.233 120.130,419.233 120.130,419.233 " />
<polygon stroke="black" stroke-width="1" fill="grey" fill-opacity="0.25" points="120.130,419.233 120.130,419.233 120.130,419.233 120.130,419.233 " />
<polygon stroke="black" stroke-width="1" fill="grey" fill-opacity="0.25" points="120.130,419.233 120.130,419.233 120.130,419.233 120.130,419.233 " />
<polygon stroke="black" stroke-width="1" fill="grey" fill-opacity="0.25" points="120.130,419.233 120.130,419.233 120.130,419.233 120.130,419.233 " />
<polygon stroke="black" stroke-width="1" fill="grey" fill-opacity="0.25" points="120.130,419.233 120.130,419.233 120.130,419.233 120.130,419.233 " />
<polygon stroke="black" stroke-width="1" fill="grey" fill-opacity="0.25" points="120.130,419.233 120.130,419.233 120.130,419.233 120.130,419.233 " />
<polygon stroke="black" stroke-width="1" fill="grey" fill-opacity="0.25" points="120.130,419.233 120.130,419.233 120.130,419.233 " />
<polygon stroke="black" stroke-width="1" fill="grey" fill-opacity="0.25" points="120.130,419.233 120.130,419.233 120.130,419.233 120.130,419.233 " />
<polygon stroke="black" stroke-width="1" fill="grey" fill-opacity="0.25" points="120.130,419.233 120.130,419.233 120.130,419.233 120.130,419.233 " />
<polygon stroke="black" stroke-width="1" fill="grey" fill-opacity="0.25" points="8.440,458.000 11.908,475.435 54.000,458.000 " />
<polygon stroke="black" stroke-width="1" fill="grey" fill-opacity="0.25" points="120.130,419.233 120.130,419.233 120.130,419.233 " />
<polygon stroke="black" stroke-width="1" fill="grey" fill-opacity="0.25" points="54.000,503.560 71.435,500.092 54.000,458.000 " />
<polygon stroke="black" stroke-width="1" fill="grey" fill-opacity="0.25" points="71.435,415.908 54.000,412.440 54.000,458.000 " />
<polygon stroke="black" stroke-width="1" fill="grey" fill-opacity="0.25" points="120.130,419.233 120.130,419.233 120.130,419.233 " />
<polygon stroke="black" stroke-width="1" fill="grey" fill-opacity="0.25" points="11.908,440.565 8.440,458.000 54.000,458.000 " />
<polygon stroke="black" stroke-width="1" fill="grey" fill-opacity="0.25" points="120.130,419.233 120.130,419.233 120.130,419.233 " />
<polygon stroke="black" stroke-width="1" fill="grey" fill-opacity="0.25" points="120.130,419.233 120.130,419.233 120.130,419.233 " />
<polygon stroke="black" stroke-width="1" fill="grey" fill-opacity="0.25" points="120.130,419.233 120.130,419.233 120.130,419.233 " />
<polygon stroke="black" stroke-width="1" fill="grey" fill-opacity="0.25" points="36.565,500.092 54.000,503.560 54.000,458.000 " />
<polygon stroke="black" stroke-width="1" fill="grey" fill-opacity="0.25" points="86.216,425.784 71.435,415.908 54.000,458.000 " />
<polygon stroke="black" stroke-width="1" fill="grey" fill-opacity="0.25" points="96.092,475.435 99.560,458.000 54.000,458.000 " />
<polygon stroke="black" stroke-width="1" fill="grey" fill-opacity="0.25" points="120.130,419.233 120.130,419.233 120.130,419.233 " />
<polygon stroke="black" stroke-width="1" fill="grey" fill-opacity="0.25" points="21.784,425.784 11.908,440.565 54.000,458.000 " />
<polygon stroke="black" stroke-width="1" fill="grey" fill-opacity="0.25" points="120.130,419.233 120.130,419.233 120.130,419.233 " />
<polygon stroke="black" stroke-width="1" fill="grey" fill-opacity="0.25" points="120.130,419.233 120.130,419.233 120.130,419.233 " />
<polygon stroke="black" stroke-width="1" fill="grey" fill-opacity="0.25" points="21.784,490.216 36.565,500.092 54.000,458.000 " />
<polygon stroke="black" stroke-width="1" fill="grey" fill-opacity="0.25" points="96.092,440.565 86.216,425.784 54.000,458.000 " />
<polygon stroke="black" stroke-width="1" fill="grey" fill-opacity="0.25" points="120.130,419.233 120.130,419.233 120.130,419.233 " />
<polygon stroke="black" stroke-width="1" fill="grey" fill-opacity="0.25" points="120.130,419.233 120.130,419.233 120.130,419.233 " />
<polygon stroke="black" stroke-width="1" fill="grey" fill-opacity="0.25" points="86.216,490.216 96.092,475.435 54.000,458.000 " />
<polygon stroke="black" stroke-width="1" fill="grey" fill-opacity="0.25" points="36.565,415.908 21.784,425.784 54.000,458.000 " />
<polygon stroke="black" stroke-width="1" fill="grey" fill-opacity="0.25" points="120.130,419.233 120.130,419.233 120.130,419.233 " />
<polygon stroke="black" stroke-width="1" fill="grey" fill-opacity="0.25" points="120.130,419.233 120.130,419.233 120.130,419.233 " />
<polygon stroke="black" stroke-width="1" fill="grey" fill-opacity="0.25" points="11.908,475.435 21.784,490.216 54.000,458.000 " />
<polygon stroke="black" stroke-width="1" fill="grey" fill-opacity="0.25" points="99.560,458.000 96.092,440.565 54.000,458.000 " />
<polygon stroke="black" stroke-width="1" fill="grey" fill-opacity="0.25" points="120.130,419.233 120.130,419.233 120.130,419.233 " />
<polygon stroke="black" stroke-width="1" fill="grey" fill-opacity="0.25" points="120.130,419.233 120.130,419.233 120.130,419.233 " />
<polygon stroke="black" stroke-width="1" fill="grey" fill-opacity="0.25" points="71.435,500.092 86.216,490.216 54.000,458.000 " />
<polygon stroke="black" stroke-width="1" fill="grey" fill-opacity="0.25" points="54.000,412.440 36.565,415.908 54.000,458.000 " />
<polygon stroke="black" stroke-width="1" fill="grey" fill-opacity="0.25" points="120.130,419.233 120.130,419.233 120.130,419.233 " />

</svg>
