<?xml version="1.0" standalone="no"?>
<!DOCTYPE svg PUBLIC "-//W3C//DTD SVG 1.1//EN" 
  "http://www.w3.org/Graphics/SVG/1.1/DTD/svg11.dtd">
<svg width="512" height="512" viewBox="0 0 512 512"
     xmlns="http://www.w3.org/2000/svg" version="1.1">
<desc>'x14.blend', body.prm, (Blender 2.79 (sub 0))</desc>
<polygon stroke="black" stroke-width="1" fill="grey" fill-opacity="0.25" points="472.300,239.127 472.300,227.335 383.760,227.335 " />
<polygon stroke="black" stroke-width="1" fill="grey" fill-opacity="0.25" points="472.300,239.127 383.760,227.335 383.724,256.892 " />
<polygon stroke="black" stroke-width="1" fill="grey" fill-opacity="0.25" points="455.146,256.892 472.300,239.127 383.724,256.892 " />
<polygon stroke="black" stroke-width="1" fill="grey" fill-opacity="0.25" points="383.760,227.335 472.300,227.335 434.230,183.919 347.415,183.919 " />
<polygon stroke="black" stroke-width="1" fill="grey" fill-opacity="0.25" points="472.300,50.648 383.760,62.440 472.300,62.440 " />
<polygon stroke="black" stroke-width="1" fill="grey" fill-opacity="0.25" points="472.300,50.648 383.724,32.883 383.760,62.440 " />
<polygon stroke="black" stroke-width="1" fill="grey" fill-opacity="0.25" points="455.146,32.883 383.724,32.883 472.300,50.648 " />
<polygon stroke="black" stroke-width="1" fill="grey" fill-opacity="0.25" points="445.412,362.822 484.870,362.822 484.870,327.800 445.412,327.800 " />
<polygon stroke="black" stroke-width="1" fill="grey" fill-opacity="0.25" points="434.230,183.919 434.230,105.856 347.415,105.856 347.415,183.919 " />
<polygon stroke="black" stroke-width="1" fill="grey" fill-opacity="0.25" points="507.203,185.121 507.203,104.654 489.438,104.654 489.438,185.121 " />
<polygon stroke="black" stroke-width="1" fill="grey" fill-opacity="0.25" points="489.438,185.121 489.438,104.654 477.646,104.654 477.646,185.121 " />
<polygon stroke="black" stroke-width="1" fill="grey" fill-opacity="0.25" points="477.646,185.121 477.646,104.654 434.230,105.856 434.230,183.919 " />
<polygon stroke="black" stroke-width="1" fill="grey" fill-opacity="0.25" points="383.760,62.440 347.415,105.856 434.230,105.856 472.300,62.440 " />
<polygon stroke="black" stroke-width="1" fill="grey" fill-opacity="0.25" points="413.885,392.463 413.885,337.181 364.533,337.181 364.533,392.463 " />
<polygon stroke="black" stroke-width="1" fill="grey" fill-opacity="0.25" points="413.885,337.181 413.885,322.517 364.533,322.517 364.533,337.181 " />
<polygon stroke="black" stroke-width="1" fill="grey" fill-opacity="0.25" points="413.885,322.517 413.885,377.682 364.533,377.682 364.533,322.517 " />
<polygon stroke="black" stroke-width="1" fill="grey" fill-opacity="0.25" points="413.885,508.573 413.885,430.280 364.533,430.280 364.533,508.573 " />
<polygon stroke="black" stroke-width="1" fill="grey" fill-opacity="0.25" points="413.885,337.181 413.885,392.463 413.885,377.682 413.885,322.517 " />
<polygon stroke="black" stroke-width="1" fill="grey" fill-opacity="0.25" points="364.533,337.181 364.533,322.517 364.533,377.682 364.533,392.463 " />
<polygon stroke="black" stroke-width="1" fill="grey" fill-opacity="0.25" points="413.885,508.573 364.533,508.573 364.533,499.049 413.885,499.049 " />
<polygon stroke="black" stroke-width="1" fill="grey" fill-opacity="0.25" points="413.885,499.049 364.533,499.049 364.533,419.987 413.885,419.987 " />
<polygon stroke="black" stroke-width="1" fill="grey" fill-opacity="0.25" points="413.885,430.280 413.885,392.463 364.533,392.463 364.533,430.280 " />
<polygon stroke="black" stroke-width="1" fill="grey" fill-opacity="0.25" points="413.885,508.573 413.885,499.049 413.885,419.987 413.885,430.280 " />
<polygon stroke="black" stroke-width="1" fill="grey" fill-opacity="0.25" points="364.533,508.573 364.533,430.280 364.533,419.987 364.533,499.049 " />
<polygon stroke="black" stroke-width="1" fill="grey" fill-opacity="0.25" points="413.885,377.682 413.885,392.463 413.885,430.280 413.885,419.987 " />
<polygon stroke="black" stroke-width="1" fill="grey" fill-opacity="0.25" points="364.533,377.682 364.533,419.987 364.533,430.280 364.533,392.463 " />
<polygon stroke="black" stroke-width="1" fill="grey" fill-opacity="0.25" points="425.865,508.437 504.417,449.179 425.865,449.179 " />
<polygon stroke="black" stroke-width="1" fill="grey" fill-opacity="0.25" points="425.865,449.179 504.417,449.179 426.106,433.157 " />
<polygon stroke="black" stroke-width="1" fill="grey" fill-opacity="0.25" points="490.240,284.493 505.768,293.867 505.768,304.041 490.411,313.415 " />
<polygon stroke="black" stroke-width="1" fill="grey" fill-opacity="0.25" points="490.411,313.415 345.570,313.415 345.399,284.493 490.240,284.493 " />
<polygon stroke="black" stroke-width="1" fill="grey" fill-opacity="0.25" points="490.411,301.525 505.768,301.525 505.768,296.745 490.411,296.745 " />
<polygon stroke="black" stroke-width="1" fill="grey" fill-opacity="0.25" points="505.768,301.525 505.768,301.525 505.768,296.745 505.768,296.745 " />
<polygon stroke="black" stroke-width="1" fill="grey" fill-opacity="0.25" points="345.570,301.525 490.411,301.525 490.411,296.745 345.570,296.745 " />
<polygon stroke="black" stroke-width="1" fill="grey" fill-opacity="0.25" points="505.768,301.525 490.240,301.525 490.240,296.745 505.768,296.745 " />
<polygon stroke="black" stroke-width="1" fill="grey" fill-opacity="0.25" points="490.240,301.525 345.399,301.525 345.399,296.745 490.240,296.745 " />
<polygon stroke="black" stroke-width="1" fill="grey" fill-opacity="0.25" points="504.176,433.157 484.870,362.822 426.106,433.157 " />
<polygon stroke="black" stroke-width="1" fill="grey" fill-opacity="0.25" points="484.870,362.822 504.176,433.157 504.176,362.824 " />
<polygon stroke="black" stroke-width="1" fill="grey" fill-opacity="0.25" points="504.417,449.179 504.176,433.157 426.106,433.157 " />
<polygon stroke="black" stroke-width="1" fill="grey" fill-opacity="0.25" points="425.865,508.437 504.417,508.437 504.417,449.179 " />
<polygon stroke="black" stroke-width="1" fill="grey" fill-opacity="0.25" points="445.412,362.822 426.106,362.824 426.106,433.157 " />
<polygon stroke="black" stroke-width="1" fill="grey" fill-opacity="0.25" points="426.106,433.157 484.870,362.822 445.412,362.822 " />
<polygon stroke="black" stroke-width="1" fill="grey" fill-opacity="0.25" points="357.169,279.948 438.808,279.948 458.979,298.065 " />
<polygon stroke="black" stroke-width="1" fill="grey" fill-opacity="0.25" points="332.033,299.792 458.979,299.792 458.979,293.134 332.033,293.134 " />
<polygon stroke="black" stroke-width="1" fill="grey" fill-opacity="0.25" points="458.979,298.065 357.169,279.948 332.033,298.065 " />
<polygon stroke="black" stroke-width="1" fill="grey" fill-opacity="0.25" points="458.979,298.065 438.808,279.948 357.169,279.948 " />
<polygon stroke="black" stroke-width="1" fill="grey" fill-opacity="0.25" points="357.169,279.948 458.979,298.065 332.033,298.065 " />
<polygon stroke="black" stroke-width="1" fill="grey" fill-opacity="0.25" points="5.193,222.214 46.740,206.812 46.740,183.288 " />
<polygon stroke="black" stroke-width="1" fill="grey" fill-opacity="0.25" points="202.053,144.000 186.107,144.000 186.107,183.288 202.053,183.288 " />
<polygon stroke="black" stroke-width="1" fill="grey" fill-opacity="0.25" points="202.053,183.288 186.107,183.288 186.107,211.927 202.145,206.812 " />
<polygon stroke="black" stroke-width="1" fill="grey" fill-opacity="0.25" points="258.455,206.812 258.363,183.288 202.053,183.288 202.145,206.812 " />
<polygon stroke="black" stroke-width="1" fill="grey" fill-opacity="0.25" points="101.695,144.000 46.740,144.000 46.740,183.288 101.695,183.288 " />
<polygon stroke="black" stroke-width="1" fill="grey" fill-opacity="0.25" points="101.695,206.812 101.695,183.288 46.740,183.288 46.740,206.812 " />
<polygon stroke="black" stroke-width="1" fill="grey" fill-opacity="0.25" points="300.910,65.952 258.455,81.188 258.363,104.712 300.758,104.878 " />
<polygon stroke="black" stroke-width="1" fill="grey" fill-opacity="0.25" points="258.363,144.000 202.053,144.000 202.053,183.288 258.363,183.288 " />
<polygon stroke="black" stroke-width="1" fill="grey" fill-opacity="0.25" points="186.107,183.288 121.566,183.288 121.566,211.926 186.107,211.927 " />
<polygon stroke="black" stroke-width="1" fill="grey" fill-opacity="0.25" points="329.985,66.546 300.910,65.952 300.758,104.878 329.620,104.991 " />
<polygon stroke="black" stroke-width="1" fill="grey" fill-opacity="0.25" points="258.455,81.188 202.145,81.188 202.053,104.712 258.363,104.712 " />
<polygon stroke="black" stroke-width="1" fill="grey" fill-opacity="0.25" points="101.695,81.188 101.695,104.712 121.566,104.712 121.566,76.073 " />
<polygon stroke="black" stroke-width="1" fill="grey" fill-opacity="0.25" points="258.363,144.000 258.363,104.712 202.053,104.712 202.053,144.000 " />
<polygon stroke="black" stroke-width="1" fill="grey" fill-opacity="0.25" points="46.740,144.000 5.192,65.785 5.193,222.214 " />
<polygon stroke="black" stroke-width="1" fill="grey" fill-opacity="0.25" points="186.107,104.712 186.107,76.073 121.566,76.073 121.566,104.712 " />
<polygon stroke="black" stroke-width="1" fill="grey" fill-opacity="0.25" points="5.192,65.785 46.740,104.712 46.740,81.188 " />
<polygon stroke="black" stroke-width="1" fill="grey" fill-opacity="0.25" points="101.695,144.000 101.695,104.712 46.740,104.712 46.740,144.000 " />
<polygon stroke="black" stroke-width="1" fill="grey" fill-opacity="0.25" points="186.107,144.000 121.566,144.000 121.566,183.288 186.107,183.288 " />
<polygon stroke="black" stroke-width="1" fill="grey" fill-opacity="0.25" points="300.910,222.049 300.758,183.123 258.363,183.288 258.455,206.812 " />
<polygon stroke="black" stroke-width="1" fill="grey" fill-opacity="0.25" points="329.985,221.455 329.620,183.010 300.758,183.123 300.910,222.049 " />
<polygon stroke="black" stroke-width="1" fill="grey" fill-opacity="0.25" points="101.695,206.812 121.566,211.926 121.566,183.288 101.695,183.288 " />
<polygon stroke="black" stroke-width="1" fill="grey" fill-opacity="0.25" points="202.053,144.000 202.053,104.712 186.107,104.712 186.107,144.000 " />
<polygon stroke="black" stroke-width="1" fill="grey" fill-opacity="0.25" points="101.695,81.188 46.740,81.188 46.740,104.712 101.695,104.712 " />
<polygon stroke="black" stroke-width="1" fill="grey" fill-opacity="0.25" points="121.566,183.288 121.566,144.000 101.695,144.000 101.695,183.288 " />
<polygon stroke="black" stroke-width="1" fill="grey" fill-opacity="0.25" points="186.107,144.000 186.107,104.712 121.566,104.712 121.566,144.000 " />
<polygon stroke="black" stroke-width="1" fill="grey" fill-opacity="0.25" points="202.053,104.712 202.145,81.188 186.107,76.073 186.107,104.712 " />
<polygon stroke="black" stroke-width="1" fill="grey" fill-opacity="0.25" points="121.566,104.712 101.695,104.712 101.695,144.000 121.566,144.000 " />
<polygon stroke="black" stroke-width="1" fill="grey" fill-opacity="0.25" points="490.240,284.493 490.411,313.415 505.768,304.041 505.768,293.867 " />
<polygon stroke="black" stroke-width="1" fill="grey" fill-opacity="0.25" points="490.411,313.415 490.240,284.493 345.399,284.493 345.570,313.415 " />
<polygon stroke="black" stroke-width="1" fill="grey" fill-opacity="0.25" points="490.411,301.525 490.411,296.745 505.768,296.745 505.768,301.525 " />
<polygon stroke="black" stroke-width="1" fill="grey" fill-opacity="0.25" points="505.768,301.525 505.768,296.745 505.768,296.745 505.768,301.525 " />
<polygon stroke="black" stroke-width="1" fill="grey" fill-opacity="0.25" points="345.570,301.525 345.570,296.745 490.411,296.745 490.411,301.525 " />
<polygon stroke="black" stroke-width="1" fill="grey" fill-opacity="0.25" points="505.768,301.525 505.768,296.745 490.240,296.745 490.240,301.525 " />
<polygon stroke="black" stroke-width="1" fill="grey" fill-opacity="0.25" points="490.240,301.525 490.240,296.745 345.399,296.745 345.399,301.525 " />
<polygon stroke="black" stroke-width="1" fill="grey" fill-opacity="0.25" points="5.193,222.214 46.740,183.288 46.740,144.000 " />
<polygon stroke="black" stroke-width="1" fill="grey" fill-opacity="0.25" points="46.740,144.000 46.740,104.712 5.192,65.785 " />
<polygon stroke="black" stroke-width="1" fill="grey" fill-opacity="0.25" points="357.169,279.948 458.979,298.065 438.808,279.948 " />
<polygon stroke="black" stroke-width="1" fill="grey" fill-opacity="0.25" points="332.033,299.792 332.033,293.134 458.979,293.134 458.979,299.792 " />
<polygon stroke="black" stroke-width="1" fill="grey" fill-opacity="0.25" points="458.979,298.065 332.033,298.065 357.169,279.948 " />
<polygon stroke="black" stroke-width="1" fill="grey" fill-opacity="0.25" points="458.979,298.065 357.169,279.948 438.808,279.948 " />
<polygon stroke="black" stroke-width="1" fill="grey" fill-opacity="0.25" points="357.169,279.948 332.033,298.065 458.979,298.065 " />
<polygon stroke="black" stroke-width="1" fill="grey" fill-opacity="0.25" points="490.411,313.415 345.570,313.415 345.399,284.493 490.240,284.493 " />
<polygon stroke="black" stroke-width="1" fill="grey" fill-opacity="0.25" points="490.240,284.493 505.768,293.867 505.768,304.041 490.411,313.415 " />
<polygon stroke="black" stroke-width="1" fill="grey" fill-opacity="0.25" points="490.411,313.415 490.240,284.493 345.399,284.493 345.570,313.415 " />
<polygon stroke="black" stroke-width="1" fill="grey" fill-opacity="0.25" points="490.240,284.493 490.411,313.415 505.768,304.041 505.768,293.867 " />
<polygon stroke="black" stroke-width="1" fill="grey" fill-opacity="0.25" points="309.669,352.732 268.147,352.985 276.226,377.343 " />
<polygon stroke="black" stroke-width="1" fill="grey" fill-opacity="0.25" points="301.888,377.186 276.226,377.343 268.147,352.985 " />
<polygon stroke="black" stroke-width="1" fill="grey" fill-opacity="0.25" points="270.838,495.801 351.375,495.801 351.375,461.603 270.838,461.603 " />
<polygon stroke="black" stroke-width="1" fill="grey" fill-opacity="0.25" points="270.838,461.603 351.375,461.603 351.375,492.488 270.838,492.488 " />
<polygon stroke="black" stroke-width="1" fill="grey" fill-opacity="0.25" points="270.838,492.488 351.375,492.488 351.375,419.399 270.838,419.399 " />
<polygon stroke="black" stroke-width="1" fill="grey" fill-opacity="0.25" points="270.838,419.399 351.375,419.399 351.375,394.726 270.838,394.726 " />
<polygon stroke="black" stroke-width="1" fill="grey" fill-opacity="0.25" points="270.838,506.187 351.375,506.187 351.375,495.801 270.838,495.801 " />
<polygon stroke="black" stroke-width="1" fill="grey" fill-opacity="0.25" points="276.226,377.343 301.888,377.186 309.669,352.732 " />
<polygon stroke="black" stroke-width="1" fill="grey" fill-opacity="0.25" points="309.669,352.732 288.816,337.774 268.147,352.985 " />
<polygon stroke="black" stroke-width="1" fill="grey" fill-opacity="0.25" points="288.816,337.774 309.669,352.732 268.147,352.985 " />
<polygon stroke="black" stroke-width="1" fill="grey" fill-opacity="0.25" points="309.669,352.732 301.888,377.186 268.147,352.985 " />
<polygon stroke="black" stroke-width="1" fill="grey" fill-opacity="0.25" points="321.207,353.802 313.820,366.205 309.395,358.414 " />
<polygon stroke="black" stroke-width="1" fill="grey" fill-opacity="0.25" points="313.820,366.205 321.207,353.802 321.121,363.355 " />
<polygon stroke="black" stroke-width="1" fill="grey" fill-opacity="0.25" points="321.207,353.802 309.395,358.414 313.960,350.748 " />
<polygon stroke="black" stroke-width="1" fill="grey" fill-opacity="0.25" points="313.960,350.748 309.395,358.414 313.317,358.414 316.355,350.748 " />
<polygon stroke="black" stroke-width="1" fill="grey" fill-opacity="0.25" points="309.395,358.414 313.820,366.205 316.262,366.205 313.317,358.414 " />
<polygon stroke="black" stroke-width="1" fill="grey" fill-opacity="0.25" points="321.207,353.802 313.960,350.748 316.355,350.748 321.178,353.802 " />
<polygon stroke="black" stroke-width="1" fill="grey" fill-opacity="0.25" points="313.960,350.748 309.395,358.414 309.395,358.414 313.960,350.748 " />
<polygon stroke="black" stroke-width="1" fill="grey" fill-opacity="0.25" points="321.121,363.355 321.207,353.802 321.207,353.802 321.121,363.355 " />
<polygon stroke="black" stroke-width="1" fill="grey" fill-opacity="0.25" points="313.820,366.205 321.121,363.355 321.121,363.355 313.820,366.205 " />
<polygon stroke="black" stroke-width="1" fill="grey" fill-opacity="0.25" points="321.207,353.802 313.960,350.748 313.960,350.748 321.207,353.802 " />
<polygon stroke="black" stroke-width="1" fill="grey" fill-opacity="0.25" points="309.395,358.414 313.820,366.205 313.820,366.205 309.395,358.414 " />
<polygon stroke="black" stroke-width="1" fill="grey" fill-opacity="0.25" points="316.262,366.205 321.120,363.355 354.691,363.753 354.628,365.922 " />
<polygon stroke="black" stroke-width="1" fill="grey" fill-opacity="0.25" points="321.120,363.355 321.178,353.802 354.692,356.484 354.691,363.753 " />
<polygon stroke="black" stroke-width="1" fill="grey" fill-opacity="0.25" points="316.355,350.748 313.317,358.414 354.590,359.993 354.629,354.160 " />
<polygon stroke="black" stroke-width="1" fill="grey" fill-opacity="0.25" points="321.121,363.355 321.207,353.802 321.178,353.802 321.120,363.355 " />
<polygon stroke="black" stroke-width="1" fill="grey" fill-opacity="0.25" points="313.820,366.205 321.121,363.355 321.120,363.355 316.262,366.205 " />
<polygon stroke="black" stroke-width="1" fill="grey" fill-opacity="0.25" points="354.692,356.484 354.590,359.993 354.628,365.922 " />
<polygon stroke="black" stroke-width="1" fill="grey" fill-opacity="0.25" points="354.628,365.922 354.691,363.753 354.692,356.484 " />
<polygon stroke="black" stroke-width="1" fill="grey" fill-opacity="0.25" points="354.692,356.484 354.629,354.160 354.590,359.993 " />
<polygon stroke="black" stroke-width="1" fill="grey" fill-opacity="0.25" points="321.178,353.802 316.355,350.748 354.629,354.160 354.692,356.484 " />
<polygon stroke="black" stroke-width="1" fill="grey" fill-opacity="0.25" points="313.317,358.414 316.262,366.205 354.628,365.922 354.590,359.993 " />
<polygon stroke="black" stroke-width="1" fill="grey" fill-opacity="0.25" points="153.801,278.320 293.918,249.153 142.474,248.491 " />
<polygon stroke="black" stroke-width="1" fill="grey" fill-opacity="0.25" points="101.695,206.812 46.740,206.812 24.468,248.435 " />
<polygon stroke="black" stroke-width="1" fill="grey" fill-opacity="0.25" points="142.474,248.491 293.918,249.153 186.116,221.150 " />
<polygon stroke="black" stroke-width="1" fill="grey" fill-opacity="0.25" points="142.474,39.509 121.576,66.808 186.117,66.850 " />
<polygon stroke="black" stroke-width="1" fill="grey" fill-opacity="0.25" points="121.576,66.808 24.468,39.565 101.695,81.188 " />
<polygon stroke="black" stroke-width="1" fill="grey" fill-opacity="0.25" points="153.801,9.679 142.474,39.509 293.918,38.847 " />
<polygon stroke="black" stroke-width="1" fill="grey" fill-opacity="0.25" points="101.695,81.188 24.468,39.565 46.740,81.188 " />
<polygon stroke="black" stroke-width="1" fill="grey" fill-opacity="0.25" points="258.455,81.188 186.117,66.850 202.145,81.188 " />
<polygon stroke="black" stroke-width="1" fill="grey" fill-opacity="0.25" points="293.918,38.847 186.117,66.850 258.455,81.188 " />
<polygon stroke="black" stroke-width="1" fill="grey" fill-opacity="0.25" points="142.474,248.491 186.116,221.150 121.576,221.191 " />
<polygon stroke="black" stroke-width="1" fill="grey" fill-opacity="0.25" points="121.576,221.191 101.695,206.812 24.468,248.435 " />
<polygon stroke="black" stroke-width="1" fill="grey" fill-opacity="0.25" points="258.455,206.812 202.145,206.812 186.116,221.150 " />
<polygon stroke="black" stroke-width="1" fill="grey" fill-opacity="0.25" points="293.918,249.153 258.455,206.812 186.116,221.150 " />
<polygon stroke="black" stroke-width="1" fill="grey" fill-opacity="0.25" points="153.801,278.320 293.860,278.230 293.918,249.153 " />
<polygon stroke="black" stroke-width="1" fill="grey" fill-opacity="0.25" points="142.474,248.491 121.576,221.191 24.468,248.435 " />
<polygon stroke="black" stroke-width="1" fill="grey" fill-opacity="0.25" points="142.474,39.509 186.117,66.850 293.918,38.847 " />
<polygon stroke="black" stroke-width="1" fill="grey" fill-opacity="0.25" points="153.801,9.679 293.918,38.847 293.860,9.770 " />
<polygon stroke="black" stroke-width="1" fill="grey" fill-opacity="0.25" points="142.474,39.509 24.468,39.565 121.576,66.808 " />
<polygon stroke="black" stroke-width="1" fill="grey" fill-opacity="0.25" points="345.399,296.745 345.399,301.525 345.570,313.415 345.570,296.745 " />
<polygon stroke="black" stroke-width="1" fill="grey" fill-opacity="0.25" points="345.399,301.525 345.399,296.745 345.570,313.415 345.570,301.525 " />
<polygon stroke="black" stroke-width="1" fill="grey" fill-opacity="0.25" points="411.034,324.432 366.102,324.432 366.101,379.388 411.034,379.388 " />
<polygon stroke="black" stroke-width="1" fill="grey" fill-opacity="0.25" points="226.852,385.518 239.800,391.834 239.800,390.123 226.852,383.287 " />
<polygon stroke="black" stroke-width="1" fill="grey" fill-opacity="0.25" points="226.852,412.598 239.800,412.598 239.800,403.997 226.852,401.381 " />
<polygon stroke="black" stroke-width="1" fill="grey" fill-opacity="0.25" points="204.307,385.080 204.307,385.080 204.307,385.080 204.307,385.080 " />
<polygon stroke="black" stroke-width="1" fill="grey" fill-opacity="0.25" points="226.852,423.815 239.800,421.199 239.800,412.598 226.852,412.598 " />
<polygon stroke="black" stroke-width="1" fill="grey" fill-opacity="0.25" points="18.126,409.199 78.000,434.000 13.193,434.000 " />
<polygon stroke="black" stroke-width="1" fill="grey" fill-opacity="0.25" points="204.307,385.080 204.307,385.080 204.307,385.080 204.307,385.080 " />
<polygon stroke="black" stroke-width="1" fill="grey" fill-opacity="0.25" points="226.852,433.324 239.800,428.490 239.800,433.362 226.852,439.678 " />
<polygon stroke="black" stroke-width="1" fill="grey" fill-opacity="0.25" points="226.852,383.287 239.800,390.123 239.800,391.834 226.852,385.518 " />
<polygon stroke="black" stroke-width="1" fill="grey" fill-opacity="0.25" points="204.307,385.080 204.307,385.080 204.307,385.080 204.307,385.080 " />
<polygon stroke="black" stroke-width="1" fill="grey" fill-opacity="0.25" points="226.852,439.678 239.800,433.362 239.800,435.073 226.852,441.909 " />
<polygon stroke="black" stroke-width="1" fill="grey" fill-opacity="0.25" points="226.852,423.815 239.800,421.199 239.800,428.490 226.852,433.324 " />
<polygon stroke="black" stroke-width="1" fill="grey" fill-opacity="0.25" points="204.307,385.080 204.307,385.080 204.307,385.080 204.307,385.080 " />
<polygon stroke="black" stroke-width="1" fill="grey" fill-opacity="0.25" points="226.852,391.872 239.800,396.706 239.800,391.834 226.852,385.518 " />
<polygon stroke="black" stroke-width="1" fill="grey" fill-opacity="0.25" points="226.852,441.909 239.800,435.073 239.800,433.362 226.852,439.678 " />
<polygon stroke="black" stroke-width="1" fill="grey" fill-opacity="0.25" points="204.307,385.080 204.307,385.080 204.307,385.080 204.307,385.080 " />
<polygon stroke="black" stroke-width="1" fill="grey" fill-opacity="0.25" points="226.852,412.598 239.800,412.598 239.800,403.997 226.852,401.381 " />
<polygon stroke="black" stroke-width="1" fill="grey" fill-opacity="0.25" points="226.852,401.381 239.800,403.997 239.800,396.706 226.852,391.872 " />
<polygon stroke="black" stroke-width="1" fill="grey" fill-opacity="0.25" points="204.307,385.080 204.307,385.080 204.307,385.080 204.307,385.080 " />
<polygon stroke="black" stroke-width="1" fill="grey" fill-opacity="0.25" points="226.852,412.598 239.800,412.598 239.800,421.199 226.852,423.815 " />
<polygon stroke="black" stroke-width="1" fill="grey" fill-opacity="0.25" points="226.852,401.381 239.800,403.997 239.800,396.706 226.852,391.872 " />
<polygon stroke="black" stroke-width="1" fill="grey" fill-opacity="0.25" points="204.307,385.080 204.307,385.080 204.307,385.080 204.307,385.080 " />
<polygon stroke="black" stroke-width="1" fill="grey" fill-opacity="0.25" points="226.852,385.518 239.800,391.834 239.800,396.706 226.852,391.872 " />
<polygon stroke="black" stroke-width="1" fill="grey" fill-opacity="0.25" points="226.852,423.815 239.800,421.199 239.800,428.490 226.852,433.324 " />
<polygon stroke="black" stroke-width="1" fill="grey" fill-opacity="0.25" points="204.307,385.080 204.307,385.080 204.307,385.080 204.307,385.080 " />
<polygon stroke="black" stroke-width="1" fill="grey" fill-opacity="0.25" points="226.852,439.678 239.800,433.362 239.800,428.490 226.852,433.324 " />
<polygon stroke="black" stroke-width="1" fill="grey" fill-opacity="0.25" points="226.852,383.287 239.800,390.123 239.800,391.834 226.852,385.518 " />
<polygon stroke="black" stroke-width="1" fill="grey" fill-opacity="0.25" points="204.307,385.080 204.307,385.080 204.307,385.080 204.307,385.080 " />
<polygon stroke="black" stroke-width="1" fill="grey" fill-opacity="0.25" points="226.852,439.678 239.800,433.362 239.800,428.490 226.852,433.324 " />
<polygon stroke="black" stroke-width="1" fill="grey" fill-opacity="0.25" points="226.852,433.324 239.800,428.490 239.800,421.199 226.852,423.815 " />
<polygon stroke="black" stroke-width="1" fill="grey" fill-opacity="0.25" points="204.307,385.080 204.307,385.080 204.307,385.080 204.307,385.080 " />
<polygon stroke="black" stroke-width="1" fill="grey" fill-opacity="0.25" points="226.852,385.518 239.800,391.834 239.800,396.706 226.852,391.872 " />
<polygon stroke="black" stroke-width="1" fill="grey" fill-opacity="0.25" points="226.852,391.872 239.800,396.706 239.800,403.997 226.852,401.381 " />
<polygon stroke="black" stroke-width="1" fill="grey" fill-opacity="0.25" points="204.307,385.080 204.307,385.080 204.307,385.080 204.307,385.080 " />
<polygon stroke="black" stroke-width="1" fill="grey" fill-opacity="0.25" points="226.852,412.598 239.800,412.598 239.800,421.199 226.852,423.815 " />
<polygon stroke="black" stroke-width="1" fill="grey" fill-opacity="0.25" points="226.852,439.678 239.800,433.362 239.800,435.073 226.852,441.909 " />
<polygon stroke="black" stroke-width="1" fill="grey" fill-opacity="0.25" points="204.307,385.080 204.307,385.080 204.307,385.080 204.307,385.080 " />
<polygon stroke="black" stroke-width="1" fill="grey" fill-opacity="0.25" points="226.852,385.518 239.800,391.834 239.800,390.123 226.852,383.287 " />
<polygon stroke="black" stroke-width="1" fill="grey" fill-opacity="0.25" points="226.852,401.381 239.800,403.997 239.800,412.598 226.852,412.598 " />
<polygon stroke="black" stroke-width="1" fill="grey" fill-opacity="0.25" points="204.307,385.080 204.307,385.080 204.307,385.080 204.307,385.080 " />
<polygon stroke="black" stroke-width="1" fill="grey" fill-opacity="0.25" points="226.852,433.324 239.800,428.490 239.800,433.362 226.852,439.678 " />
<polygon stroke="black" stroke-width="1" fill="grey" fill-opacity="0.25" points="226.852,423.815 239.800,421.199 239.800,412.598 226.852,412.598 " />
<polygon stroke="black" stroke-width="1" fill="grey" fill-opacity="0.25" points="204.307,385.080 204.307,385.080 204.307,385.080 204.307,385.080 " />
<polygon stroke="black" stroke-width="1" fill="grey" fill-opacity="0.25" points="226.852,433.324 239.800,428.490 239.800,421.199 226.852,423.815 " />
<polygon stroke="black" stroke-width="1" fill="grey" fill-opacity="0.25" points="226.852,391.872 239.800,396.706 239.800,391.834 226.852,385.518 " />
<polygon stroke="black" stroke-width="1" fill="grey" fill-opacity="0.25" points="204.307,385.080 204.307,385.080 204.307,385.080 204.307,385.080 " />
<polygon stroke="black" stroke-width="1" fill="grey" fill-opacity="0.25" points="226.852,441.909 239.800,435.073 239.800,433.362 226.852,439.678 " />
<polygon stroke="black" stroke-width="1" fill="grey" fill-opacity="0.25" points="18.126,458.801 78.000,434.000 32.174,479.826 " />
<polygon stroke="black" stroke-width="1" fill="grey" fill-opacity="0.25" points="204.307,385.080 204.307,385.080 204.307,385.080 204.307,385.080 " />
<polygon stroke="black" stroke-width="1" fill="grey" fill-opacity="0.25" points="226.852,391.872 239.800,396.706 239.800,403.997 226.852,401.381 " />
<polygon stroke="black" stroke-width="1" fill="grey" fill-opacity="0.25" points="226.852,401.381 239.800,403.997 239.800,412.598 226.852,412.598 " />
<polygon stroke="black" stroke-width="1" fill="grey" fill-opacity="0.25" points="18.126,458.801 78.000,434.000 13.193,434.000 " />
<polygon stroke="black" stroke-width="1" fill="grey" fill-opacity="0.25" points="32.174,479.826 78.000,434.000 18.126,458.801 " />
<polygon stroke="black" stroke-width="1" fill="grey" fill-opacity="0.25" points="123.826,388.174 78.000,434.000 137.874,409.199 " />
<polygon stroke="black" stroke-width="1" fill="grey" fill-opacity="0.25" points="13.193,434.000 78.000,434.000 18.126,458.801 " />
<polygon stroke="black" stroke-width="1" fill="grey" fill-opacity="0.25" points="32.174,388.174 78.000,434.000 53.199,374.126 " />
<polygon stroke="black" stroke-width="1" fill="grey" fill-opacity="0.25" points="32.174,479.826 78.000,434.000 53.199,493.874 " />
<polygon stroke="black" stroke-width="1" fill="grey" fill-opacity="0.25" points="53.199,493.874 78.000,434.000 32.174,479.826 " />
<polygon stroke="black" stroke-width="1" fill="grey" fill-opacity="0.25" points="78.000,369.193 78.000,434.000 53.199,374.126 " />
<polygon stroke="black" stroke-width="1" fill="grey" fill-opacity="0.25" points="137.874,409.199 78.000,434.000 142.807,434.000 " />
<polygon stroke="black" stroke-width="1" fill="grey" fill-opacity="0.25" points="53.199,493.874 78.000,434.000 78.000,498.807 " />
<polygon stroke="black" stroke-width="1" fill="grey" fill-opacity="0.25" points="142.807,434.000 78.000,434.000 137.874,409.199 " />
<polygon stroke="black" stroke-width="1" fill="grey" fill-opacity="0.25" points="102.801,374.126 78.000,434.000 123.826,388.174 " />
<polygon stroke="black" stroke-width="1" fill="grey" fill-opacity="0.25" points="78.000,498.807 78.000,434.000 53.199,493.874 " />
<polygon stroke="black" stroke-width="1" fill="grey" fill-opacity="0.25" points="18.126,409.199 78.000,434.000 32.174,388.174 " />
<polygon stroke="black" stroke-width="1" fill="grey" fill-opacity="0.25" points="78.000,498.807 78.000,434.000 102.801,493.874 " />
<polygon stroke="black" stroke-width="1" fill="grey" fill-opacity="0.25" points="137.874,409.199 78.000,434.000 123.826,388.174 " />
<polygon stroke="black" stroke-width="1" fill="grey" fill-opacity="0.25" points="53.199,374.126 78.000,434.000 32.174,388.174 " />
<polygon stroke="black" stroke-width="1" fill="grey" fill-opacity="0.25" points="102.801,493.874 78.000,434.000 78.000,498.807 " />
<polygon stroke="black" stroke-width="1" fill="grey" fill-opacity="0.25" points="102.801,493.874 78.000,434.000 123.826,479.826 " />
<polygon stroke="black" stroke-width="1" fill="grey" fill-opacity="0.25" points="78.000,369.193 78.000,434.000 102.801,374.126 " />
<polygon stroke="black" stroke-width="1" fill="grey" fill-opacity="0.25" points="13.193,434.000 78.000,434.000 18.126,409.199 " />
<polygon stroke="black" stroke-width="1" fill="grey" fill-opacity="0.25" points="123.826,479.826 78.000,434.000 102.801,493.874 " />
<polygon stroke="black" stroke-width="1" fill="grey" fill-opacity="0.25" points="123.826,388.174 78.000,434.000 102.801,374.126 " />
<polygon stroke="black" stroke-width="1" fill="grey" fill-opacity="0.25" points="123.826,479.826 78.000,434.000 137.874,458.801 " />
<polygon stroke="black" stroke-width="1" fill="grey" fill-opacity="0.25" points="32.174,388.174 78.000,434.000 18.126,409.199 " />
<polygon stroke="black" stroke-width="1" fill="grey" fill-opacity="0.25" points="137.874,458.801 78.000,434.000 123.826,479.826 " />
<polygon stroke="black" stroke-width="1" fill="grey" fill-opacity="0.25" points="53.199,374.126 78.000,434.000 78.000,369.193 " />
<polygon stroke="black" stroke-width="1" fill="grey" fill-opacity="0.25" points="137.874,458.801 78.000,434.000 142.807,434.000 " />
<polygon stroke="black" stroke-width="1" fill="grey" fill-opacity="0.25" points="142.807,434.000 78.000,434.000 137.874,458.801 " />
<polygon stroke="black" stroke-width="1" fill="grey" fill-opacity="0.25" points="102.801,374.126 78.000,434.000 78.000,369.193 " />

</svg>
